<svg width="16" height="11" viewBox="0 0 16 11" fill="none" xmlns="http://www.w3.org/2000/svg">
<path fill-rule="evenodd" clip-rule="evenodd" d="M7.74702 1.06452C7.12488 1.06452 6.7245 1.48464 6.7245 1.88774C6.7245 2.02891 6.6657 2.16429 6.56103 2.26411C6.45635 2.36392 6.31439 2.42 6.16636 2.42C6.01833 2.42 5.87636 2.36392 5.77169 2.26411C5.66702 2.16429 5.60822 2.02891 5.60822 1.88774C5.60822 0.79271 6.62329 0 7.74702 0C8.87075 0 9.88583 0.79271 9.88583 1.88774C9.88583 2.37032 9.70127 2.82026 9.37233 3.1609C9.26815 3.26948 9.15354 3.37735 9.04861 3.47671L8.99354 3.52781C8.87958 3.63335 8.7701 3.7432 8.66535 3.8571C8.60971 3.91837 8.55873 3.98335 8.51279 4.05155C8.94251 4.12781 9.35129 4.28722 9.71392 4.51994L15.2455 8.07542C15.9525 8.52961 16.1437 9.27974 15.8981 9.91206C15.6563 10.5337 15.0118 11 14.1746 11H1.82475C0.997211 11 0.355719 10.5423 0.108648 9.92839C-0.142889 9.30387 0.0342286 8.558 0.724838 8.09529L6.00487 4.55258C6.39894 4.28931 6.8502 4.11417 7.32507 4.04019C7.40321 3.68039 7.61753 3.38871 7.81474 3.16729C7.94274 3.02394 8.08265 2.88981 8.20842 2.77129L8.26795 2.71452C8.37437 2.61516 8.46665 2.52787 8.55075 2.44058C8.68619 2.30006 8.76954 2.10845 8.76954 1.88703C8.76954 1.48465 8.36916 1.06452 7.74702 1.06452ZM9.09029 5.40206C8.72559 5.17163 8.29606 5.05234 7.85865 5.06C7.42573 5.06249 7.0036 5.18909 6.64711 5.42335L1.36707 8.96535C1.10958 9.13781 1.0761 9.36135 1.15126 9.54658C1.2294 9.74174 1.45117 9.93548 1.82475 9.93548H14.1746C14.5534 9.93548 14.7744 9.7389 14.8518 9.54161C14.924 9.35426 14.8868 9.12858 14.6211 8.95826L9.09029 5.40206Z" fill="#FFA6BE"/>
</svg>
