<svg width="20" height="15" viewBox="0 0 20 15" fill="none" xmlns="http://www.w3.org/2000/svg">
<path d="M6.83093 11.3344L17.7778 0.3875C18.0361 0.129167 18.3375 0 18.682 0C19.0264 0 19.3278 0.129167 19.5861 0.3875C19.8445 0.645834 19.9736 0.952819 19.9736 1.30846C19.9736 1.6641 19.8445 1.97065 19.5861 2.22813L7.7351 14.1115C7.47676 14.3698 7.17537 14.499 6.83093 14.499C6.48649 14.499 6.1851 14.3698 5.92676 14.1115L0.372596 8.55729C0.114263 8.29896 -0.00973718 7.9924 0.000596153 7.63762C0.0109295 7.28285 0.145693 6.97586 0.404887 6.71667C0.664082 6.45747 0.971068 6.3283 1.32585 6.32917C1.68062 6.33003 1.98718 6.45919 2.24551 6.71667L6.83093 11.3344Z" fill="#189E39"/>
</svg>
