<svg width="42" height="42" viewBox="0 0 42 42" fill="none" xmlns="http://www.w3.org/2000/svg">
<mask id="mask0_143_74" style="mask-type:luminance" maskUnits="userSpaceOnUse" x="0" y="0" width="42" height="42">
<path d="M20.5833 40.1667C23.1555 40.1699 25.703 39.6647 28.0794 38.6804C30.4557 37.696 32.6142 36.2518 34.4307 34.4307C36.2518 32.6142 37.696 30.4557 38.6804 28.0794C39.6647 25.703 40.1699 23.1555 40.1667 20.5833C40.1699 18.0112 39.6647 15.4637 38.6804 13.0873C37.696 10.711 36.2518 8.5525 34.4307 6.73597C32.6142 4.91488 30.4557 3.47067 28.0794 2.48631C25.703 1.50195 23.1555 0.996843 20.5833 1.00001C18.0112 0.996843 15.4637 1.50195 13.0873 2.48631C10.711 3.47067 8.5525 4.91488 6.73597 6.73597C4.91488 8.5525 3.47067 10.711 2.48631 13.0873C1.50195 15.4637 0.996843 18.0112 1.00001 20.5833C0.996843 23.1555 1.50195 25.703 2.48631 28.0794C3.47067 30.4557 4.91488 32.6142 6.73597 34.4307C8.5525 36.2518 10.711 37.696 13.0873 38.6804C15.4637 39.6647 18.0112 40.1699 20.5833 40.1667Z" fill="white" stroke="white" stroke-width="2" stroke-linejoin="round"/>
<path d="M12.75 20.5834L18.625 26.4584L30.375 14.7084" stroke="black" stroke-width="2" stroke-linecap="round" stroke-linejoin="round"/>
</mask>
<g mask="url(#mask0_143_74)">
<path d="M-2.91666 -2.91663H44.0833V44.0834H-2.91666V-2.91663Z" fill="#1B263B"/>
</g>
</svg>
