<svg width="44" height="31" viewBox="0 0 44 31" fill="none" xmlns="http://www.w3.org/2000/svg">
<path fill-rule="evenodd" clip-rule="evenodd" d="M21.3043 3C19.5934 3 18.4924 4.184 18.4924 5.32C18.4924 5.71782 18.3307 6.09936 18.0428 6.38066C17.755 6.66196 17.3646 6.82 16.9575 6.82C16.5504 6.82 16.16 6.66196 15.8722 6.38066C15.5843 6.09936 15.4226 5.71782 15.4226 5.32C15.4226 2.234 18.2141 0 21.3043 0C24.3946 0 27.186 2.234 27.186 5.32C27.186 6.68 26.6785 7.948 25.7739 8.908C25.4874 9.214 25.1722 9.518 24.8837 9.798L24.7322 9.942C24.4188 10.2394 24.1178 10.549 23.8297 10.87C23.6767 11.0427 23.5365 11.2258 23.4102 11.418C24.5919 11.6329 25.716 12.0822 26.7133 12.738L41.9251 22.758C43.8693 24.038 44.3952 26.152 43.7199 27.934C43.0548 29.686 41.2825 31 38.9801 31H5.01807C2.74233 31 0.978227 29.71 0.298781 27.98C-0.392944 26.22 0.0941287 24.118 1.9933 22.814L16.5134 12.83C17.5971 12.088 18.8381 11.5945 20.1439 11.386C20.3588 10.372 20.9482 9.55 21.4905 8.926C21.8425 8.522 22.2273 8.144 22.5732 7.81L22.7369 7.65C23.0295 7.37 23.2833 7.124 23.5146 6.878C23.887 6.482 24.1162 5.942 24.1162 5.318C24.1162 4.184 23.0152 3 21.3043 3ZM24.9983 15.224C23.9954 14.5746 22.8142 14.2384 21.6113 14.26C20.4207 14.267 19.2599 14.6238 18.2795 15.284L3.75945 25.266C3.05136 25.752 2.95926 26.382 3.16596 26.904C3.38085 27.454 3.99071 28 5.01807 28H38.9801C40.0218 28 40.6296 27.446 40.8425 26.89C41.041 26.362 40.9387 25.726 40.208 25.246L24.9983 15.224Z" fill="#1B263B"/>
</svg>
