<svg width="63" height="63" viewBox="0 0 63 63" fill="none" xmlns="http://www.w3.org/2000/svg">
<g clip-path="url(#clip0_5_51)">
<path fill-rule="evenodd" clip-rule="evenodd" d="M21.7691 29.6441C21.277 30.1364 21.0006 30.8039 21.0006 31.5C21.0006 32.1961 21.277 32.8636 21.7691 33.3559L36.6188 48.2055C36.8609 48.4562 37.1506 48.6562 37.4708 48.7938C37.7911 48.9313 38.1355 49.0038 38.4841 49.0068C38.8326 49.0098 39.1783 48.9434 39.5009 48.8114C39.8235 48.6794 40.1166 48.4845 40.3631 48.238C40.6095 47.9916 40.8044 47.6985 40.9364 47.3759C41.0684 47.0533 41.1348 46.7076 41.1318 46.3591C41.1288 46.0105 41.0564 45.6661 40.9188 45.3458C40.7812 45.0256 40.5812 44.7359 40.3305 44.4938L27.3368 31.5L40.3305 18.5063C40.8087 18.0112 41.0733 17.3481 41.0673 16.6598C41.0613 15.9716 40.7852 15.3132 40.2985 14.8265C39.8118 14.3398 39.1535 14.0637 38.4652 14.0577C37.7769 14.0518 37.1138 14.3163 36.6188 14.7945L21.7691 29.6441Z" fill="#1B263B"/>
</g>
<defs>
<clipPath id="clip0_5_51">
<rect width="63" height="63" fill="white" transform="matrix(-1 0 0 1 63 0)"/>
</clipPath>
</defs>
</svg>
