<svg width="23" height="23" viewBox="0 0 23 23" fill="none" xmlns="http://www.w3.org/2000/svg">
<path d="M9.95838 13.0417H2.25005C1.81324 13.0417 1.44735 12.8937 1.15238 12.5977C0.857407 12.3017 0.709407 11.9358 0.708379 11.5C0.707352 11.0642 0.855352 10.6983 1.15238 10.4023C1.44941 10.1063 1.8153 9.95833 2.25005 9.95833H9.95838V2.25C9.95838 1.81319 10.1064 1.44731 10.4024 1.15233C10.6984 0.857362 11.0643 0.709361 11.5 0.708334C11.9358 0.707306 12.3022 0.855306 12.5993 1.15233C12.8963 1.44936 13.0438 1.81525 13.0417 2.25V9.95833H20.75C21.1869 9.95833 21.5533 10.1063 21.8493 10.4023C22.1453 10.6983 22.2927 11.0642 22.2917 11.5C22.2907 11.9358 22.1427 12.3022 21.8477 12.5992C21.5527 12.8962 21.1869 13.0437 20.75 13.0417H13.0417V20.75C13.0417 21.1868 12.8937 21.5532 12.5977 21.8492C12.3017 22.1452 11.9358 22.2927 11.5 22.2917C11.0643 22.2906 10.6984 22.1426 10.4024 21.8477C10.1064 21.5527 9.95838 21.1868 9.95838 20.75V13.0417Z" fill="#1B263B"/>
</svg>
