<svg width="28" height="36" viewBox="0 0 28 36" fill="none" xmlns="http://www.w3.org/2000/svg">
<path d="M1.95833 31.3333C1.95833 33.4875 3.72083 35.25 5.875 35.25H21.5417C23.6958 35.25 25.4583 33.4875 25.4583 31.3333V11.75C25.4583 9.59583 23.6958 7.83333 21.5417 7.83333H5.875C3.72083 7.83333 1.95833 9.59583 1.95833 11.75V31.3333ZM25.4583 1.95833H20.5625L19.1721 0.567917C18.8196 0.215417 18.3104 0 17.8012 0H9.61542C9.10625 0 8.59708 0.215417 8.24458 0.567917L6.85417 1.95833H1.95833C0.88125 1.95833 0 2.83958 0 3.91667C0 4.99375 0.88125 5.875 1.95833 5.875H25.4583C26.5354 5.875 27.4167 4.99375 27.4167 3.91667C27.4167 2.83958 26.5354 1.95833 25.4583 1.95833Z" fill="#1B263B"/>
</svg>
